<svg xmlns="http://www.w3.org/2000/svg" viewBox="0 0 611.71 347"><defs><style>.cls-1{fill:gray;}.cls-2{fill:#ff0;stroke:#ff0;stroke-miterlimit:10;stroke-width:2px;}.cls-3{font-size:60.52px;font-family:FranklinGothic-Heavy, Franklin Gothic Heavy;font-weight:800;}.cls-4{letter-spacing:-0.05em;}</style></defs><g id="Layer_2" data-name="Layer 2"><g id="Layer_2-2" data-name="Layer 2"><path class="cls-1" d="M76,45,160,0V155L99,122V62L75,75Q75.5,60,76,45Z"/><path class="cls-1" d="M99,137v47l40,25V344h44.1V181Z"/><path class="cls-2" d="M37,169l85,46V343H36C36,286,35.67,227,37,169Z"/><path class="cls-1" d="M1,133,87,87v96L35,153V328L0,347Q.5,240,1,133Z"/><path d="M166.34,157.18V70.34h25.78q16.8,0,25.15,13t8.35,30q0,19.47-9,31.66t-23.27,12.18Zm20.46-20h5.32q5.08,0,8.57-6.42t3.49-17.5a39.46,39.46,0,0,0-3.1-16.35q-3.11-6.87-9-6.87H186.8Z"/><path d="M268.81,157.18l-3.76-17.11H247.19l-4,17.11H226.58l20.58-86.84h21.63l20.9,86.84Zm-18.14-36.07h10.78l-5.39-25.2Z"/><path d="M352.81,157.18H336.16l-18.25-38.37a166.31,166.31,0,0,1-7.09-17.94,77.17,77.17,0,0,1,1.61,14.26v42.05h-16.6V70.34h19.34l15.53,31.8a139.43,139.43,0,0,1,7,16.68A162.59,162.59,0,0,1,336.16,96V70.34h16.65Z"/><path d="M393.24,158.52q-14.06,0-22.92-12.16t-8.86-32.51q0-19.47,8.47-32.16T393.44,69q13.92,0,22.68,12t8.76,31.94q0,20.67-8.83,33.15T393.24,158.52Zm-.09-19.73q5.18,0,7.44-5.88t2.27-21.54q0-22.65-9.32-22.65-10.07,0-10.06,25.83Q383.48,138.79,393.15,138.79Z"/><path d="M426.64,132.05l19-4.45q2.39,10.49,12.3,10.49,7.71,0,7.72-5.34a5.48,5.48,0,0,0-1.79-4.36c-1.18-1-3.31-2-6.37-2.76Q440,121.25,435,114.18a28.05,28.05,0,0,1-5-16.61q0-12.27,7.16-20.42T457.75,69q20.36,0,26.9,21.31L467.71,97q-2.64-8.71-10.7-8.71-6.69,0-6.69,5.41a4.74,4.74,0,0,0,1.52,3.75q1.52,1.34,5.86,2.54,12,3.3,17,5.83a20.06,20.06,0,0,1,8.4,8.68A29.77,29.77,0,0,1,486.46,129q0,13.17-8.21,21.36t-21.53,8.18Q432.36,158.52,426.64,132.05Z"/><path d="M550.81,70.34v86.84H530.35V123.4H514.73v33.78H494.27V70.34h20.46v31.93h15.62V70.34Z"/><text class="cls-3" transform="translate(203.75 222.44) scale(0.76 1)">BUILDERS <tspan class="cls-4" x="300.23" y="0">L</tspan><tspan x="329.99" y="0" xml:space="preserve">TD.        </tspan></text></g></g></svg>