<svg xmlns="http://www.w3.org/2000/svg" viewBox="0 0 146.21 49.44"><defs><style>.cls-1{fill:gray;}.cls-2{fill:#ff0;stroke:#ff0;stroke-miterlimit:10;stroke-width:2px;}.cls-3{font-size:8.55px;font-family:FranklinGothic-Heavy, Franklin Gothic Heavy;font-weight:800;}.cls-4{letter-spacing:-0.05em;}</style></defs><g id="Layer_2" data-name="Layer 2"><g id="Layer_1-2" data-name="Layer 1"><path class="cls-1" d="M18.17,6.35,38.24,0V21.89L23.66,17.23V8.75l-5.73,1.84Z"/><path class="cls-1" d="M23.66,19.35V26l9.56,3.52V48.58H43.76v-23Z"/><path class="cls-2" d="M8.84,23.86l20.32,6.5V48.44H8.6C8.6,40.39,8.52,32.06,8.84,23.86Z"/><path class="cls-1" d="M.24,18.78l20.55-6.49V25.84L8.37,21.61V46.32L0,49Z"/><path d="M39.76,22.2V9.93h6.16q4,0,6,1.83a5.64,5.64,0,0,1,2,4.25,5.44,5.44,0,0,1-2.15,4.46,8.57,8.57,0,0,1-5.56,1.73Zm4.89-2.83h1.27a2.69,2.69,0,0,0,2-.9A3.55,3.55,0,0,0,48.8,16a3.63,3.63,0,0,0-.74-2.31,2.52,2.52,0,0,0-2.14-1H44.65Z"/><path d="M64.25,22.2l-.9-2.42H59.08l-.95,2.42h-4L59.07,9.93h5.17l5,12.27Zm-4.34-5.1h2.58L61.2,13.54Z"/><path d="M84.33,22.2h-4L76,16.78a19.61,19.61,0,0,1-1.69-2.54,6.75,6.75,0,0,1,.39,2V22.2h-4V9.93h4.62L79,14.42a16.74,16.74,0,0,1,1.68,2.36,13.83,13.83,0,0,1-.37-3.22V9.93h4Z"/><path d="M94,22.38a8.45,8.45,0,0,1-5.48-1.71,5.63,5.63,0,0,1-2.12-4.59,5.79,5.79,0,0,1,2-4.54A8.16,8.16,0,0,1,94,9.74a8.42,8.42,0,0,1,5.42,1.69,5.52,5.52,0,0,1,2.09,4.51,5.77,5.77,0,0,1-2.11,4.68A8.19,8.19,0,0,1,94,22.38Zm0-2.78a2,2,0,0,0,1.78-.83,6,6,0,0,0,.54-3c0-2.14-.74-3.2-2.23-3.2s-2.4,1.21-2.4,3.65Q91.66,19.6,94,19.6Z"/><path d="M102,18.65l4.54-.63c.38,1,1.36,1.48,2.94,1.48,1.23,0,1.85-.25,1.85-.75a.67.67,0,0,0-.43-.62,5.26,5.26,0,0,0-1.52-.39c-2.79-.41-4.59-.95-5.38-1.62a3,3,0,0,1-1.19-2.34,3.4,3.4,0,0,1,1.71-2.89,8.86,8.86,0,0,1,4.92-1.15c3.24,0,5.39,1,6.43,3l-4,.95a2.59,2.59,0,0,0-2.56-1.23c-1.06,0-1.6.25-1.6.76a.58.58,0,0,0,.37.53,5.34,5.34,0,0,0,1.4.36,36.87,36.87,0,0,1,4.06.82,4.43,4.43,0,0,1,2,1.23,2.93,2.93,0,0,1,.8,2,3.43,3.43,0,0,1-2,3,10.07,10.07,0,0,1-5.15,1.15Q103.34,22.38,102,18.65Z"/><path d="M131.65,9.93V22.2h-4.89V17.42H123V22.2h-4.89V9.93H123v4.51h3.73V9.93Z"/><text class="cls-3" transform="translate(48.7 31.41) scale(1.29 1)">BUILDERS <tspan class="cls-4" x="42.4" y="0">L</tspan><tspan x="46.6" y="0" xml:space="preserve">TD.        </tspan></text></g></g></svg>